<?xml version="1.0" encoding="utf-8"?>
<!-- Generator: Adobe Illustrator 26.3.1, SVG Export Plug-In . SVG Version: 6.00 Build 0)  -->
<svg version="1.1" id="Layer_1" xmlns="http://www.w3.org/2000/svg" xmlns:xlink="http://www.w3.org/1999/xlink" x="0px" y="0px"
	 viewBox="0 0 800 800" style="enable-background:new 0 0 800 800;" xml:space="preserve">
<style type="text/css">
	.st0{fill-rule:evenodd;clip-rule:evenodd;fill:#010101;}
</style>
<path class="st0" d="M376.68,234.02c-21.04-21.03-49.56-32.84-79.3-32.84s-58.27,11.82-79.3,32.84
	c-21.03,21.03-32.85,49.56-32.85,79.3c-1.41,22.29,5.8,44.26,20.14,61.38c13.07,17.71,26.48,35.87,26.48,83.48
	c0.03,9.68,7.87,17.53,17.55,17.57h95.91c4.65,0.02,9.12-1.8,12.43-5.08l0.04-0.04c3.29-3.3,5.14-7.77,5.12-12.43
	c0-47.61,13.4-65.77,26.46-83.48c14.34-17.12,21.55-39.09,20.15-61.38c0.03-29.75-11.79-58.3-32.86-79.3L376.68,234.02z
	 M339.97,498.81h-85.2c-3.61,0.03-6.52,2.98-6.5,6.59v7.48c0.01,1.75,0.71,3.41,1.95,4.64c1.24,1.23,2.91,1.91,4.66,1.91h85
	c1.75,0.01,3.43-0.68,4.67-1.91c1.23-1.24,1.93-2.92,1.92-4.66v-7.45C346.49,501.79,343.58,498.84,339.97,498.81L339.97,498.81z
	 M315.44,542.51h-36.13c-3.59,0.07-6.48,2.99-6.5,6.58v7.48c0.01,1.74,0.71,3.41,1.95,4.63c1.24,1.23,2.92,1.92,4.66,1.92h35.96
	h-0.01c1.75,0.01,3.43-0.68,4.66-1.92c1.24-1.23,1.93-2.92,1.92-4.66v-7.45c0.01-1.75-0.69-3.42-1.92-4.66
	c-1.21-1.21-2.85-1.91-4.57-1.94L315.44,542.51z M308.89,132.38c0,6.38-5.17,11.55-11.55,11.55c-6.37,0-11.54-5.17-11.54-11.55V98.4
	c0-6.37,5.17-11.55,11.54-11.55c6.38,0,11.55,5.17,11.55,11.55V132.38z M219.04,151.21c3.19,5.5,1.32,12.54-4.18,15.73
	c-5.49,3.18-12.54,1.31-15.72-4.18l-16.99-29.45c-3.18-5.49-1.31-12.53,4.18-15.72c5.49-3.19,12.53-1.32,15.72,4.18l17,29.43
	L219.04,151.21z M150.66,212.49L150.66,212.49c5.05,3.34,6.64,10.03,3.63,15.28c-3.01,5.25-9.59,7.26-15.02,4.58l-29.46-16.99
	c-5.5-3.16-7.39-10.18-4.24-15.67c3.16-5.49,10.18-7.39,15.67-4.23l29.43,17L150.66,212.49z M122.1,299.65
	c6.37,0,11.55,5.17,11.55,11.55c0,6.37-5.17,11.54-11.55,11.54H88.12c-6.37,0-11.55-5.17-11.55-11.54c0-6.38,5.17-11.55,11.55-11.55
	H122.1z M140.93,389.5c5.49-3.19,12.54-1.32,15.72,4.18c3.19,5.49,1.32,12.54-4.18,15.73l-29.43,16.99
	c-5.49,3.19-12.54,1.32-15.72-4.18c-3.19-5.49-1.32-12.53,4.18-15.72L140.93,389.5z M447.56,406.38
	c-5.49-3.16-7.39-10.18-4.23-15.67c3.16-5.49,10.17-7.39,15.67-4.23l29.43,16.99h-0.01c5.5,3.16,7.39,10.18,4.24,15.67
	c-3.16,5.49-10.18,7.39-15.67,4.23L447.56,406.38z M476.12,319.2L476.12,319.2c-6.37-0.01-11.54-5.17-11.54-11.55
	c0-6.38,5.17-11.55,11.55-11.55h33.98h-0.01c6.38,0,11.55,5.17,11.55,11.55c0,6.37-5.17,11.54-11.55,11.54L476.12,319.2z
	 M457.3,229.36c-5.49,3.18-12.53,1.31-15.72-4.18c-3.19-5.49-1.32-12.53,4.18-15.72l29.43-16.99c5.49-3.19,12.53-1.32,15.72,4.18
	c3.18,5.49,1.31,12.54-4.18,15.72L457.3,229.36L457.3,229.36z M396.02,160.97c-1.5,2.66-4,4.62-6.96,5.43
	c-2.95,0.81-6.1,0.41-8.76-1.12c-2.65-1.53-4.58-4.05-5.37-7.01c-0.78-2.96-0.35-6.11,1.2-8.75l16.99-29.43h0.01
	c3.16-5.5,10.17-7.39,15.67-4.24c5.49,3.16,7.39,10.18,4.23,15.67L396.02,160.97z M0.03,652.85V53.88
	c0.13-14.4,6.27-28.09,16.94-37.77C28.36,5.66,43.28-0.1,58.75,0H598.2v631.05H55.59c-20.47-0.08-40.2,7.59-55.24,21.47L0,652.85
	H0.03z M158.47,716.62v82.66l24.62-30.12c2.17-2.72,5.46-4.32,8.94-4.34c3.48-0.02,6.79,1.52,9,4.21l24.72,30.25v-82.66
	L158.47,716.62z M248.82,716.62v39.44h349.39v-39.44H248.82z M237,693.53H97.77c-6.37,0-11.55,5.17-11.55,11.55
	c0,6.37,5.17,11.54,11.55,11.54h37.65v39.44H55.63c-14.64,0.1-28.78-5.35-39.58-15.25c-10.19-9.08-16.02-22.08-16.02-35.72
	s5.83-26.64,16.02-35.72c10.79-9.9,24.93-15.35,39.58-15.26h542.61v39.48H237L237,693.53z M297.38,178.1
	c35.87,0.01,70.25,14.25,95.61,39.61c25.35,25.37,39.6,59.76,39.58,95.62c1.67,27.27-7.18,54.15-24.74,75.08
	c-10.8,14.64-21.87,29.64-21.87,69.78c-0.01,10.75-4.3,21.07-11.92,28.66v0.05c-2.22,2.21-4.69,4.17-7.35,5.82
	c1.9,3.96,2.88,8.29,2.88,12.68v7.48c-0.01,7.84-3.14,15.36-8.7,20.89h-0.04c-4.49,4.51-10.31,7.45-16.61,8.38
	c0.54,2.26,0.82,4.58,0.82,6.9v7.48c-0.01,7.85-3.13,15.36-8.7,20.9h-0.04c-5.53,5.56-13.05,8.68-20.9,8.69h-36
	c-7.84-0.01-15.36-3.13-20.9-8.69h-0.04c-5.57-5.55-8.7-13.08-8.7-20.94v-7.39c0-2.32,0.27-4.64,0.82-6.89
	c-6.29-0.94-12.12-3.88-16.61-8.39c-5.57-5.54-8.7-13.08-8.7-20.93v-7.48c-0.02-4.37,0.94-8.7,2.81-12.66
	c-11.97-7.42-19.26-20.47-19.3-34.55c0-40.14-11.08-55.15-21.88-69.78c-17.56-20.94-26.41-47.81-24.74-75.08
	c0-35.85,14.24-70.24,39.59-95.59c25.35-25.35,59.74-39.6,95.59-39.61L297.38,178.1z"/>
</svg>
